<mxfile host="Electron" agent="Mozilla/5.0 (Windows NT 10.0; Win64; x64) AppleWebKit/537.36 (KHTML, like Gecko) draw.io/26.2.2 Chrome/134.0.6998.178 Electron/35.1.2 Safari/537.36" version="26.2.2">
  <diagram name="Page-1" id="7B4OJ7sacN1D4LCp5gl3">
    <mxGraphModel dx="1475" dy="430" grid="1" gridSize="10" guides="1" tooltips="1" connect="1" arrows="1" fold="1" page="1" pageScale="1" pageWidth="850" pageHeight="1100" math="0" shadow="0">
      <root>
        <mxCell id="0" />
        <mxCell id="1" parent="0" />
        <mxCell id="0gQMcINrZdxNtqMhk7y5-4" style="edgeStyle=orthogonalEdgeStyle;rounded=0;orthogonalLoop=1;jettySize=auto;html=1;entryX=0.5;entryY=0;entryDx=0;entryDy=0;" edge="1" parent="1" source="0gQMcINrZdxNtqMhk7y5-1" target="0gQMcINrZdxNtqMhk7y5-3">
          <mxGeometry relative="1" as="geometry" />
        </mxCell>
        <mxCell id="0gQMcINrZdxNtqMhk7y5-1" value="" style="ellipse;html=1;shape=endState;fillColor=#000000;strokeColor=#ff0000;" vertex="1" parent="1">
          <mxGeometry x="220" y="60" width="30" height="30" as="geometry" />
        </mxCell>
        <mxCell id="0gQMcINrZdxNtqMhk7y5-61" style="edgeStyle=orthogonalEdgeStyle;rounded=0;orthogonalLoop=1;jettySize=auto;html=1;entryX=0.5;entryY=0;entryDx=0;entryDy=0;" edge="1" parent="1" source="0gQMcINrZdxNtqMhk7y5-3" target="0gQMcINrZdxNtqMhk7y5-60">
          <mxGeometry relative="1" as="geometry" />
        </mxCell>
        <mxCell id="0gQMcINrZdxNtqMhk7y5-3" value="Join Server" style="rounded=0;whiteSpace=wrap;html=1;" vertex="1" parent="1">
          <mxGeometry x="175" y="130" width="120" height="60" as="geometry" />
        </mxCell>
        <mxCell id="0gQMcINrZdxNtqMhk7y5-10" style="edgeStyle=orthogonalEdgeStyle;rounded=0;orthogonalLoop=1;jettySize=auto;html=1;entryX=0.5;entryY=0;entryDx=0;entryDy=0;" edge="1" parent="1" source="0gQMcINrZdxNtqMhk7y5-5" target="0gQMcINrZdxNtqMhk7y5-6">
          <mxGeometry relative="1" as="geometry" />
        </mxCell>
        <mxCell id="0gQMcINrZdxNtqMhk7y5-5" value="Choose room" style="rounded=0;whiteSpace=wrap;html=1;" vertex="1" parent="1">
          <mxGeometry x="175" y="280" width="120" height="60" as="geometry" />
        </mxCell>
        <mxCell id="0gQMcINrZdxNtqMhk7y5-7" style="edgeStyle=orthogonalEdgeStyle;rounded=0;orthogonalLoop=1;jettySize=auto;html=1;entryX=0.5;entryY=0;entryDx=0;entryDy=0;" edge="1" parent="1" source="0gQMcINrZdxNtqMhk7y5-6" target="0gQMcINrZdxNtqMhk7y5-5">
          <mxGeometry relative="1" as="geometry">
            <Array as="points">
              <mxPoint x="315" y="420" />
              <mxPoint x="315" y="250" />
              <mxPoint x="235" y="250" />
            </Array>
          </mxGeometry>
        </mxCell>
        <mxCell id="0gQMcINrZdxNtqMhk7y5-9" value="yes" style="edgeLabel;html=1;align=center;verticalAlign=middle;resizable=0;points=[];" vertex="1" connectable="0" parent="0gQMcINrZdxNtqMhk7y5-7">
          <mxGeometry x="-0.5387" relative="1" as="geometry">
            <mxPoint x="1" y="1" as="offset" />
          </mxGeometry>
        </mxCell>
        <mxCell id="0gQMcINrZdxNtqMhk7y5-12" style="edgeStyle=orthogonalEdgeStyle;rounded=0;orthogonalLoop=1;jettySize=auto;html=1;entryX=0.5;entryY=0;entryDx=0;entryDy=0;" edge="1" parent="1" source="0gQMcINrZdxNtqMhk7y5-6" target="0gQMcINrZdxNtqMhk7y5-11">
          <mxGeometry relative="1" as="geometry" />
        </mxCell>
        <mxCell id="0gQMcINrZdxNtqMhk7y5-13" value="no" style="edgeLabel;html=1;align=center;verticalAlign=middle;resizable=0;points=[];" vertex="1" connectable="0" parent="0gQMcINrZdxNtqMhk7y5-12">
          <mxGeometry x="-0.14" relative="1" as="geometry">
            <mxPoint as="offset" />
          </mxGeometry>
        </mxCell>
        <mxCell id="0gQMcINrZdxNtqMhk7y5-6" value="room is full" style="rhombus;whiteSpace=wrap;html=1;" vertex="1" parent="1">
          <mxGeometry x="195" y="380" width="80" height="80" as="geometry" />
        </mxCell>
        <mxCell id="0gQMcINrZdxNtqMhk7y5-17" style="edgeStyle=orthogonalEdgeStyle;rounded=0;orthogonalLoop=1;jettySize=auto;html=1;entryX=0.5;entryY=0;entryDx=0;entryDy=0;" edge="1" parent="1" source="0gQMcINrZdxNtqMhk7y5-11" target="0gQMcINrZdxNtqMhk7y5-14">
          <mxGeometry relative="1" as="geometry" />
        </mxCell>
        <mxCell id="0gQMcINrZdxNtqMhk7y5-11" value="Join wait room" style="rounded=0;whiteSpace=wrap;html=1;" vertex="1" parent="1">
          <mxGeometry x="175" y="510" width="120" height="60" as="geometry" />
        </mxCell>
        <mxCell id="0gQMcINrZdxNtqMhk7y5-69" style="edgeStyle=orthogonalEdgeStyle;rounded=0;orthogonalLoop=1;jettySize=auto;html=1;entryX=0.5;entryY=0;entryDx=0;entryDy=0;" edge="1" parent="1" source="0gQMcINrZdxNtqMhk7y5-14" target="0gQMcINrZdxNtqMhk7y5-65">
          <mxGeometry relative="1" as="geometry" />
        </mxCell>
        <mxCell id="0gQMcINrZdxNtqMhk7y5-14" value="Wait to enter game" style="rounded=0;whiteSpace=wrap;html=1;" vertex="1" parent="1">
          <mxGeometry x="175" y="630" width="120" height="60" as="geometry" />
        </mxCell>
        <mxCell id="0gQMcINrZdxNtqMhk7y5-16" style="edgeStyle=orthogonalEdgeStyle;rounded=0;orthogonalLoop=1;jettySize=auto;html=1;entryX=0.5;entryY=0;entryDx=0;entryDy=0;fillColor=#1ba1e2;strokeColor=#006EAF;" edge="1" parent="1" source="0gQMcINrZdxNtqMhk7y5-15" target="0gQMcINrZdxNtqMhk7y5-60">
          <mxGeometry relative="1" as="geometry">
            <Array as="points">
              <mxPoint x="520" y="820" />
              <mxPoint x="520" y="200" />
              <mxPoint x="235" y="200" />
            </Array>
          </mxGeometry>
        </mxCell>
        <mxCell id="0gQMcINrZdxNtqMhk7y5-15" value="Leave room" style="rounded=0;whiteSpace=wrap;html=1;" vertex="1" parent="1">
          <mxGeometry x="380" y="790" width="120" height="60" as="geometry" />
        </mxCell>
        <mxCell id="0gQMcINrZdxNtqMhk7y5-21" style="edgeStyle=orthogonalEdgeStyle;rounded=0;orthogonalLoop=1;jettySize=auto;html=1;entryX=0.5;entryY=0;entryDx=0;entryDy=0;fillColor=#1ba1e2;strokeColor=#006EAF;" edge="1" parent="1" source="0gQMcINrZdxNtqMhk7y5-20" target="0gQMcINrZdxNtqMhk7y5-65">
          <mxGeometry relative="1" as="geometry">
            <Array as="points">
              <mxPoint x="340" y="820" />
              <mxPoint x="340" y="700" />
              <mxPoint x="235" y="700" />
            </Array>
          </mxGeometry>
        </mxCell>
        <mxCell id="0gQMcINrZdxNtqMhk7y5-22" value="no" style="edgeLabel;html=1;align=center;verticalAlign=middle;resizable=0;points=[];" vertex="1" connectable="0" parent="0gQMcINrZdxNtqMhk7y5-21">
          <mxGeometry x="-0.8714" y="4" relative="1" as="geometry">
            <mxPoint as="offset" />
          </mxGeometry>
        </mxCell>
        <mxCell id="0gQMcINrZdxNtqMhk7y5-37" style="edgeStyle=orthogonalEdgeStyle;rounded=0;orthogonalLoop=1;jettySize=auto;html=1;entryX=0.5;entryY=0;entryDx=0;entryDy=0;" edge="1" parent="1" source="0gQMcINrZdxNtqMhk7y5-20" target="0gQMcINrZdxNtqMhk7y5-36">
          <mxGeometry relative="1" as="geometry" />
        </mxCell>
        <mxCell id="0gQMcINrZdxNtqMhk7y5-38" value="yes" style="edgeLabel;html=1;align=center;verticalAlign=middle;resizable=0;points=[];" vertex="1" connectable="0" parent="0gQMcINrZdxNtqMhk7y5-37">
          <mxGeometry x="-0.26" y="2" relative="1" as="geometry">
            <mxPoint as="offset" />
          </mxGeometry>
        </mxCell>
        <mxCell id="0gQMcINrZdxNtqMhk7y5-20" value="is enough players" style="rhombus;whiteSpace=wrap;html=1;" vertex="1" parent="1">
          <mxGeometry x="195" y="780" width="80" height="80" as="geometry" />
        </mxCell>
        <mxCell id="0gQMcINrZdxNtqMhk7y5-34" style="edgeStyle=orthogonalEdgeStyle;rounded=0;orthogonalLoop=1;jettySize=auto;html=1;entryX=0.5;entryY=0;entryDx=0;entryDy=0;" edge="1" parent="1" source="0gQMcINrZdxNtqMhk7y5-25" target="0gQMcINrZdxNtqMhk7y5-27">
          <mxGeometry relative="1" as="geometry" />
        </mxCell>
        <mxCell id="0gQMcINrZdxNtqMhk7y5-25" value="Choose team" style="rounded=0;whiteSpace=wrap;html=1;" vertex="1" parent="1">
          <mxGeometry y="790" width="120" height="60" as="geometry" />
        </mxCell>
        <mxCell id="0gQMcINrZdxNtqMhk7y5-30" style="edgeStyle=orthogonalEdgeStyle;rounded=0;orthogonalLoop=1;jettySize=auto;html=1;entryX=0.5;entryY=0;entryDx=0;entryDy=0;" edge="1" parent="1" source="0gQMcINrZdxNtqMhk7y5-27" target="0gQMcINrZdxNtqMhk7y5-65">
          <mxGeometry relative="1" as="geometry">
            <Array as="points">
              <mxPoint x="-90" y="940" />
              <mxPoint x="-90" y="700" />
              <mxPoint x="235" y="700" />
            </Array>
          </mxGeometry>
        </mxCell>
        <mxCell id="0gQMcINrZdxNtqMhk7y5-31" value="yes" style="edgeLabel;html=1;align=center;verticalAlign=middle;resizable=0;points=[];" vertex="1" connectable="0" parent="0gQMcINrZdxNtqMhk7y5-30">
          <mxGeometry x="-0.8575" y="-2" relative="1" as="geometry">
            <mxPoint as="offset" />
          </mxGeometry>
        </mxCell>
        <mxCell id="0gQMcINrZdxNtqMhk7y5-32" style="edgeStyle=orthogonalEdgeStyle;rounded=0;orthogonalLoop=1;jettySize=auto;html=1;entryX=0.5;entryY=0;entryDx=0;entryDy=0;" edge="1" parent="1" source="0gQMcINrZdxNtqMhk7y5-27" target="0gQMcINrZdxNtqMhk7y5-28">
          <mxGeometry relative="1" as="geometry" />
        </mxCell>
        <mxCell id="0gQMcINrZdxNtqMhk7y5-33" value="no" style="edgeLabel;html=1;align=center;verticalAlign=middle;resizable=0;points=[];" vertex="1" connectable="0" parent="0gQMcINrZdxNtqMhk7y5-32">
          <mxGeometry x="-0.0772" y="-2" relative="1" as="geometry">
            <mxPoint as="offset" />
          </mxGeometry>
        </mxCell>
        <mxCell id="0gQMcINrZdxNtqMhk7y5-27" value="Team is full" style="rhombus;whiteSpace=wrap;html=1;" vertex="1" parent="1">
          <mxGeometry x="20" y="900" width="80" height="80" as="geometry" />
        </mxCell>
        <mxCell id="0gQMcINrZdxNtqMhk7y5-29" style="edgeStyle=orthogonalEdgeStyle;rounded=0;orthogonalLoop=1;jettySize=auto;html=1;entryX=0.5;entryY=0;entryDx=0;entryDy=0;" edge="1" parent="1" source="0gQMcINrZdxNtqMhk7y5-28" target="0gQMcINrZdxNtqMhk7y5-65">
          <mxGeometry relative="1" as="geometry">
            <Array as="points">
              <mxPoint x="-90" y="1060" />
              <mxPoint x="-90" y="700" />
              <mxPoint x="235" y="700" />
            </Array>
          </mxGeometry>
        </mxCell>
        <mxCell id="0gQMcINrZdxNtqMhk7y5-28" value="Join team" style="rounded=0;whiteSpace=wrap;html=1;" vertex="1" parent="1">
          <mxGeometry y="1030" width="120" height="60" as="geometry" />
        </mxCell>
        <mxCell id="0gQMcINrZdxNtqMhk7y5-44" style="edgeStyle=orthogonalEdgeStyle;rounded=0;orthogonalLoop=1;jettySize=auto;html=1;entryX=0.5;entryY=0;entryDx=0;entryDy=0;" edge="1" parent="1" source="0gQMcINrZdxNtqMhk7y5-36" target="0gQMcINrZdxNtqMhk7y5-43">
          <mxGeometry relative="1" as="geometry" />
        </mxCell>
        <mxCell id="0gQMcINrZdxNtqMhk7y5-72" style="edgeStyle=orthogonalEdgeStyle;rounded=0;orthogonalLoop=1;jettySize=auto;html=1;entryX=0.5;entryY=0;entryDx=0;entryDy=0;" edge="1" parent="1" source="0gQMcINrZdxNtqMhk7y5-36" target="0gQMcINrZdxNtqMhk7y5-65">
          <mxGeometry relative="1" as="geometry">
            <Array as="points">
              <mxPoint x="340" y="940" />
              <mxPoint x="340" y="700" />
              <mxPoint x="235" y="700" />
            </Array>
          </mxGeometry>
        </mxCell>
        <mxCell id="0gQMcINrZdxNtqMhk7y5-36" value="Count down" style="rounded=0;whiteSpace=wrap;html=1;" vertex="1" parent="1">
          <mxGeometry x="175" y="910" width="120" height="60" as="geometry" />
        </mxCell>
        <mxCell id="0gQMcINrZdxNtqMhk7y5-45" style="edgeStyle=orthogonalEdgeStyle;rounded=0;orthogonalLoop=1;jettySize=auto;html=1;entryX=0.5;entryY=0;entryDx=0;entryDy=0;fillColor=#1ba1e2;strokeColor=#006EAF;" edge="1" parent="1" source="0gQMcINrZdxNtqMhk7y5-43" target="0gQMcINrZdxNtqMhk7y5-65">
          <mxGeometry relative="1" as="geometry">
            <Array as="points">
              <mxPoint x="340" y="1060" />
              <mxPoint x="340" y="700" />
              <mxPoint x="235" y="700" />
            </Array>
          </mxGeometry>
        </mxCell>
        <mxCell id="0gQMcINrZdxNtqMhk7y5-46" value="no" style="edgeLabel;html=1;align=center;verticalAlign=middle;resizable=0;points=[];" vertex="1" connectable="0" parent="0gQMcINrZdxNtqMhk7y5-45">
          <mxGeometry x="-0.5614" y="-3" relative="1" as="geometry">
            <mxPoint as="offset" />
          </mxGeometry>
        </mxCell>
        <mxCell id="0gQMcINrZdxNtqMhk7y5-48" style="edgeStyle=orthogonalEdgeStyle;rounded=0;orthogonalLoop=1;jettySize=auto;html=1;entryX=0.5;entryY=0;entryDx=0;entryDy=0;" edge="1" parent="1" source="0gQMcINrZdxNtqMhk7y5-43" target="0gQMcINrZdxNtqMhk7y5-47">
          <mxGeometry relative="1" as="geometry" />
        </mxCell>
        <mxCell id="0gQMcINrZdxNtqMhk7y5-73" value="yes" style="edgeLabel;html=1;align=center;verticalAlign=middle;resizable=0;points=[];" vertex="1" connectable="0" parent="0gQMcINrZdxNtqMhk7y5-48">
          <mxGeometry x="-0.2566" relative="1" as="geometry">
            <mxPoint as="offset" />
          </mxGeometry>
        </mxCell>
        <mxCell id="0gQMcINrZdxNtqMhk7y5-43" value="Count finished" style="rhombus;whiteSpace=wrap;html=1;" vertex="1" parent="1">
          <mxGeometry x="195" y="1020" width="80" height="80" as="geometry" />
        </mxCell>
        <mxCell id="0gQMcINrZdxNtqMhk7y5-51" style="edgeStyle=orthogonalEdgeStyle;rounded=0;orthogonalLoop=1;jettySize=auto;html=1;entryX=0.5;entryY=0;entryDx=0;entryDy=0;" edge="1" parent="1" source="0gQMcINrZdxNtqMhk7y5-47" target="0gQMcINrZdxNtqMhk7y5-49">
          <mxGeometry relative="1" as="geometry" />
        </mxCell>
        <mxCell id="0gQMcINrZdxNtqMhk7y5-52" style="edgeStyle=orthogonalEdgeStyle;rounded=0;orthogonalLoop=1;jettySize=auto;html=1;entryX=0.5;entryY=0;entryDx=0;entryDy=0;" edge="1" parent="1" source="0gQMcINrZdxNtqMhk7y5-47" target="0gQMcINrZdxNtqMhk7y5-50">
          <mxGeometry relative="1" as="geometry" />
        </mxCell>
        <mxCell id="0gQMcINrZdxNtqMhk7y5-47" value="Join game" style="rounded=0;whiteSpace=wrap;html=1;" vertex="1" parent="1">
          <mxGeometry x="175" y="1150" width="120" height="60" as="geometry" />
        </mxCell>
        <mxCell id="0gQMcINrZdxNtqMhk7y5-77" style="edgeStyle=orthogonalEdgeStyle;rounded=0;orthogonalLoop=1;jettySize=auto;html=1;entryX=0.5;entryY=0;entryDx=0;entryDy=0;" edge="1" parent="1" source="0gQMcINrZdxNtqMhk7y5-49" target="0gQMcINrZdxNtqMhk7y5-75">
          <mxGeometry relative="1" as="geometry" />
        </mxCell>
        <mxCell id="0gQMcINrZdxNtqMhk7y5-49" value="Leave game" style="rounded=0;whiteSpace=wrap;html=1;" vertex="1" parent="1">
          <mxGeometry x="87.5" y="1270" width="120" height="60" as="geometry" />
        </mxCell>
        <mxCell id="0gQMcINrZdxNtqMhk7y5-76" style="edgeStyle=orthogonalEdgeStyle;rounded=0;orthogonalLoop=1;jettySize=auto;html=1;" edge="1" parent="1" source="0gQMcINrZdxNtqMhk7y5-50" target="0gQMcINrZdxNtqMhk7y5-75">
          <mxGeometry relative="1" as="geometry" />
        </mxCell>
        <mxCell id="0gQMcINrZdxNtqMhk7y5-50" value="Finish game" style="rounded=0;whiteSpace=wrap;html=1;" vertex="1" parent="1">
          <mxGeometry x="262.5" y="1270" width="120" height="60" as="geometry" />
        </mxCell>
        <mxCell id="0gQMcINrZdxNtqMhk7y5-57" style="edgeStyle=orthogonalEdgeStyle;rounded=0;orthogonalLoop=1;jettySize=auto;html=1;entryX=0.5;entryY=0;entryDx=0;entryDy=0;" edge="1" parent="1" source="0gQMcINrZdxNtqMhk7y5-55" target="0gQMcINrZdxNtqMhk7y5-56">
          <mxGeometry relative="1" as="geometry">
            <Array as="points" />
          </mxGeometry>
        </mxCell>
        <mxCell id="0gQMcINrZdxNtqMhk7y5-55" value="Leave game" style="rounded=0;whiteSpace=wrap;html=1;" vertex="1" parent="1">
          <mxGeometry x="-20" y="280" width="120" height="60" as="geometry" />
        </mxCell>
        <mxCell id="0gQMcINrZdxNtqMhk7y5-56" value="" style="ellipse;html=1;shape=endState;fillColor=#000000;strokeColor=#ff0000;" vertex="1" parent="1">
          <mxGeometry x="25" y="430" width="30" height="30" as="geometry" />
        </mxCell>
        <mxCell id="0gQMcINrZdxNtqMhk7y5-62" style="edgeStyle=orthogonalEdgeStyle;rounded=0;orthogonalLoop=1;jettySize=auto;html=1;entryX=0.5;entryY=0;entryDx=0;entryDy=0;" edge="1" parent="1" source="0gQMcINrZdxNtqMhk7y5-60" target="0gQMcINrZdxNtqMhk7y5-55">
          <mxGeometry relative="1" as="geometry">
            <Array as="points">
              <mxPoint x="235" y="250" />
              <mxPoint x="40" y="250" />
            </Array>
          </mxGeometry>
        </mxCell>
        <mxCell id="0gQMcINrZdxNtqMhk7y5-63" style="edgeStyle=orthogonalEdgeStyle;rounded=0;orthogonalLoop=1;jettySize=auto;html=1;entryX=0.5;entryY=0;entryDx=0;entryDy=0;" edge="1" parent="1" source="0gQMcINrZdxNtqMhk7y5-60" target="0gQMcINrZdxNtqMhk7y5-5">
          <mxGeometry relative="1" as="geometry" />
        </mxCell>
        <mxCell id="0gQMcINrZdxNtqMhk7y5-60" value="" style="rounded=0;whiteSpace=wrap;html=1;" vertex="1" parent="1">
          <mxGeometry x="175" y="220" width="120" height="20" as="geometry" />
        </mxCell>
        <mxCell id="0gQMcINrZdxNtqMhk7y5-68" style="edgeStyle=orthogonalEdgeStyle;rounded=0;orthogonalLoop=1;jettySize=auto;html=1;entryX=0.5;entryY=0;entryDx=0;entryDy=0;" edge="1" parent="1" source="0gQMcINrZdxNtqMhk7y5-65" target="0gQMcINrZdxNtqMhk7y5-20">
          <mxGeometry relative="1" as="geometry" />
        </mxCell>
        <mxCell id="0gQMcINrZdxNtqMhk7y5-70" style="edgeStyle=orthogonalEdgeStyle;rounded=0;orthogonalLoop=1;jettySize=auto;html=1;entryX=0.5;entryY=0;entryDx=0;entryDy=0;" edge="1" parent="1" source="0gQMcINrZdxNtqMhk7y5-65" target="0gQMcINrZdxNtqMhk7y5-15">
          <mxGeometry relative="1" as="geometry">
            <Array as="points">
              <mxPoint x="235" y="760" />
              <mxPoint x="440" y="760" />
            </Array>
          </mxGeometry>
        </mxCell>
        <mxCell id="0gQMcINrZdxNtqMhk7y5-71" style="edgeStyle=orthogonalEdgeStyle;rounded=0;orthogonalLoop=1;jettySize=auto;html=1;entryX=0.5;entryY=0;entryDx=0;entryDy=0;" edge="1" parent="1" source="0gQMcINrZdxNtqMhk7y5-65" target="0gQMcINrZdxNtqMhk7y5-25">
          <mxGeometry relative="1" as="geometry">
            <Array as="points">
              <mxPoint x="235" y="760" />
              <mxPoint x="60" y="760" />
            </Array>
          </mxGeometry>
        </mxCell>
        <mxCell id="0gQMcINrZdxNtqMhk7y5-65" value="" style="rounded=0;whiteSpace=wrap;html=1;" vertex="1" parent="1">
          <mxGeometry x="175" y="720" width="120" height="20" as="geometry" />
        </mxCell>
        <mxCell id="0gQMcINrZdxNtqMhk7y5-78" style="edgeStyle=orthogonalEdgeStyle;rounded=0;orthogonalLoop=1;jettySize=auto;html=1;entryX=0.5;entryY=0;entryDx=0;entryDy=0;fillColor=#1ba1e2;strokeColor=#006EAF;" edge="1" parent="1" source="0gQMcINrZdxNtqMhk7y5-75" target="0gQMcINrZdxNtqMhk7y5-60">
          <mxGeometry relative="1" as="geometry">
            <Array as="points">
              <mxPoint x="235" y="1430" />
              <mxPoint x="520" y="1430" />
              <mxPoint x="520" y="200" />
              <mxPoint x="235" y="200" />
            </Array>
          </mxGeometry>
        </mxCell>
        <mxCell id="0gQMcINrZdxNtqMhk7y5-75" value="" style="rounded=0;whiteSpace=wrap;html=1;" vertex="1" parent="1">
          <mxGeometry x="175" y="1390" width="120" height="20" as="geometry" />
        </mxCell>
      </root>
    </mxGraphModel>
  </diagram>
</mxfile>
